# xmcd
#
# Track frame offsets:
#	150
#	14795
#	31098
#	48095
#	65600
#	88305
#	106270
#	122290
#	142368
#	161978
#	182935
#	196825
#	215743
#	234138
#	251792
#
# Disc length: 3550 seconds
#
# Revision: 1
# Processed by: cddbd v1.5.1PL2 Copyright (c) Steve Scherf et al.
# Submitted via: audiograbber 1.83.01
#
DISCID=db0ddc0f
DTITLE=Various Artist - CMA Awards 1994
DYEAR=1994
DGENRE=Country
TTITLE0=Wynonna - Girls with guitars
TTITLE1=Brooks and Dunn - That ain't no way to go
TTITLE2=Vince Gill - Tryin' to get over you
TTITLE3=Garth Brooks - Standing outside the fire
TTITLE4=Patty Loveless - How can I help you say goodbye
TTITLE5=Little Texas - What might have been
TTITLE6=Travis Tritt - Take it easy
TTITLE7=John Michael Montgomery - I swear
TTITLE8=Reba McEntire - She thinks his name was John
TTITLE9=Lee Roy Parnell - On the road
TTITLE10=George Strait - Easy come, easy go
TTITLE11=Tim McGraw - Don't take the girl
TTITLE12=Mary Chapin Carpenter - He thinks he'll keep her
TTITLE13=Trisha Yearwood - The song remembers when
TTITLE14=Alan Jackson - Summertime blues
EXTD=
EXTT0=
EXTT1=
EXTT2=
EXTT3=
EXTT4=
EXTT5=
EXTT6=
EXTT7=
EXTT8=
EXTT9=
EXTT10=
EXTT11=
EXTT12=
EXTT13=
EXTT14=
PLAYORDER=
